Simulation
nRows=15
nColumns=15
endheader
time  TH_x TH_y TH_z SC_y  SC_z  SC_x  AC_y  AC_z  AC_x  GH_y  GH_z  GH_yy  EL_x  PS_y
8.073123595505619  0.000000  0.000000  0.000000  -18.869126791563495  6.014934607220038  6.759598639247871  64.35718017003572  0.6270437632699896  8.007257906224366  -79.02998697578192  8.568503129252292  123.22791184954829  16.782375651545053  120.000000
8.113288389513109  0.000000  0.000000  0.000000  -18.77596000869935  6.045723424360841  6.753083378875657  64.18293557479582  0.42748662180778135  7.914800411338638  -74.68986179713899  8.315709370727427  118.96013055136027  16.30025782658413  120.000000
8.153453183520599  0.000000  0.000000  0.000000  -18.680480173817926  6.123689365344518  6.770392791779954  63.96519798185493  0.30547174456093545  7.811448759056304  -68.8267577838933  7.93987765297709  113.00116225834361  15.75873121268624  120.000000
8.19361797752809  0.000000  0.000000  0.000000  -18.577099140666533  6.2583069641078035  6.8345954639862185  63.71409573000244  0.2812923090714665  7.704359165647529  -60.807940773061546  7.532334722083487  104.72371299394602  15.177316055179402  120.000000
8.23378277153558  0.000000  0.000000  0.000000  -18.465387851242944  6.456303523760391  6.964410543372852  63.439483455894155  0.36892413878150165  7.601932739663611  -50.14603867391251  7.234557277527724  93.6427741512016  14.57915687571277  120.000000
8.273947565543072  0.000000  0.000000  0.000000  -18.349198492555715  6.719575339365305  7.170260396634608  63.15023861542994  0.574483076695125  7.514502079270496  -37.08256305308551  7.232920335766094  80.00084789625012  13.987866804889656  120.000000
8.314112359550561  0.000000  0.000000  0.000000  -18.23400653331055  7.045262621077345  7.455525091727393  62.85500282514998  0.8955173222286589  7.454253235176407  -23.119697562244642  7.70293487884045  65.30234298565611  13.424714134917568  120.000000
8.354277153558053  0.000000  0.000000  0.000000  -18.12515739034634  7.426890643229905  7.818716162291561  62.562572872175906  1.3229046620749652  7.435725322278913  -10.392006150656957  8.723582772768196  51.68792230288876  12.90657285031949  120.000000
8.394441947565543  0.000000  0.000000  0.000000  -18.026815797291228  7.854063918466463  8.255463961554877  62.28286105432595  1.8427877649820315  7.474576947539752  -0.21313382740428247  10.2556208078797  40.48319250166981  12.443560147720603  120.000000
8.434606741573035  0.000000  0.000000  0.000000  -17.9422711999017  8.314366577946627  8.759435164814091  62.02680944713598  2.4376108223092614  7.585650758721972  7.311770517665595  12.200013389183356  31.81263148110402  12.039558846271426  120.000000
8.474771535580524  0.000000  0.000000  0.000000  -17.874588244068885  8.795111908493014  9.322091038701668  61.803624020508536  3.0869002811267454  7.781271974246804  12.669794404752228  14.45379398296316  25.214553591239778  11.693807411108118  120.000000
8.514936329588014  0.000000  0.000000  0.000000  -17.827085497535524  9.283924012479936  9.933231425553807  61.61975639509269  3.7689516235663065  8.068921966929203  16.42420140500138  16.930157394045178  20.153496991862283  11.40183820814004  120.000000
8.555101123595506  0.000000  0.000000  0.000000  -17.804103650124745  9.770413295568428  10.581970437062358  61.47897023136867  4.462915100627857  8.450508003759769  19.032627534027945  19.559925925872015  16.199382557192664  11.157506955235322  120.000000
8.595265917602996  0.000000  0.000000  0.000000  -17.81061577663324  10.246387226288086  11.257805813790101  61.38185636361303  5.150134311865001  8.922487292810139  20.82708287744448  22.28767616598453  13.045096078698053  10.954259932867727  120.000000
8.635430711610487  0.000000  0.000000  0.000000  -17.85197242685119  10.705944016901467  11.951069476466234  61.32648932098332  5.8153765488264275  9.475751071547371  22.040613533634833  25.06840621280009  10.477947871607617  10.785946856653464  120.000000
